# xmcd
#
# Track frame offsets: 
#        150
#        25395
#        60527
#        77587
#        125057
#        152162
#        175327
#        198502
#        216792
#        222625
#
# Disc length: 3282 seconds
#
# Revision: 1
# Processed by: cddbd v1.5.2PL0 Copyright (c) Steve Scherf et al.
# Submitted via: ExactAudioCopyFreeDBPlugin 1.0
#
DISCID=940cd00a
DTITLE=Hunting Lodge - Necropolis
DYEAR=1993
DGENRE=Industrial
TTITLE0=Tribal Warning Shot (Studio Version)
TTITLE1=Nomad Souls
TTITLE2=Beautiful Ugly
TTITLE3=Born Of Fire
TTITLE4=The Wolf Hour
TTITLE5=Rhythm Cage
TTITLE6=God Loves The Rock Stars
TTITLE7=Become A Commercial Interrupting
TTITLE8=Nomad Souls (Never Ending Version)
TTITLE9=Tribal Warning Shot (Live Version)
EXTD=
EXTT0=
EXTT1=
EXTT2=
EXTT3=
EXTT4=
EXTT5=
EXTT6=
EXTT7=
EXTT8=
EXTT9=
PLAYORDER=
